<?xml version="1.0" standalone="no"?><!DOCTYPE svg PUBLIC "-//W3C//DTD SVG 1.1//EN"
        "http://www.w3.org/Graphics/SVG/1.1/DTD/svg11.dtd">
<svg t="1604996862990" class="icon" viewBox="0 0 1024 1024" version="1.1" xmlns="http://www.w3.org/2000/svg"
     p-id="48104" width="26" height="26" xmlns:xlink="http://www.w3.org/1999/xlink">
    <defs>
        <style type="text/css"></style>
    </defs>
    <path d="M60.416 65.536s-113.152 413.696-7.168 614.4c89.088 167.936 268.288 208.896 365.568 218.624 0 0.512 0 0.512-0.512 1.024 1.024-0.512 2.048-0.512 3.072-0.512 38.4 3.584 62.976 2.56 62.976 2.56s100.352-326.656-61.44-503.808C269.824 229.888 60.416 65.536 60.416 65.536z m386.048 793.6c9.216-0.512 8.192 0 0 0z m-0.512-0.512c-13.312-60.416-137.728-166.4-216.576-286.72-74.752-113.664-81.92-292.864-100.864-352.768-7.68 15.872-16.896 83.456-9.216 150.016 7.168 63.488 17.408 114.176 49.664 180.736 56.32 116.224 210.432 235.52 245.76 308.736-74.752-5.632-238.592-37.888-324.608-202.752-77.824-149.504-8.704-537.6-8.704-537.6s179.2 179.712 302.592 294.912c121.344 113.664 64 434.688 61.952 445.44z m560.64-485.888s-222.72 38.4-360.96 155.648c-171.52 145.408-87.04 378.368-87.04 378.368s275.456 23.552 387.072-132.096c105.472-147.456 60.928-401.92 60.928-401.92z m-95.744 382.976c-62.464 87.552-217.088 115.712-289.28 123.904 51.2-31.744 117.248-105.984 178.176-178.688 68.608-81.408 107.008-168.448 103.424-222.72-6.144 13.312-22.528 69.12-33.28 84.48-29.184 40.96-66.56 96.256-104.448 141.312-68.096 80.896-131.584 144.896-183.808 165.376-5.632-48.128-18.432-220.672 86.016-308.224 103.424-86.528 308.224-148.48 308.224-148.48s13.312 233.472-65.024 343.04z"
          p-id="48105" fill="#6d6d6d"></path>
</svg>
